<?xml version="1.0" standalone="no"?><!DOCTYPE svg PUBLIC "-//W3C//DTD SVG 1.1//EN" "http://www.w3.org/Graphics/SVG/1.1/DTD/svg11.dtd"><svg t="1707448827866" class="icon" viewBox="0 0 1024 1024" version="1.1" xmlns="http://www.w3.org/2000/svg" p-id="4247" xmlns:xlink="http://www.w3.org/1999/xlink" width="200" height="200"><path d="M830.061986 353.817328l-29.966499 567.691393c-1.102101 20.853957-18.330484 37.20025-39.21821 37.20025L263.122723 958.708971c-20.887726 0-38.116109-16.346293-39.21821-37.20025l-29.966499-567.691393c-1.140986-21.659299 15.489786-40.144302 37.148062-41.289382 21.759583-1.049912 40.148395 15.493879 41.289382 37.148062l28.000728 530.491143 423.248653 0 28.000728-530.491143c1.150196-21.663392 19.760043-38.130436 41.289382-37.148062C814.5722 313.674049 831.202972 332.158029 830.061986 353.817328zM934.164972 222.37467c0 21.687952-17.58347 39.271422-39.271422 39.271422L129.10645 261.646092c-21.687952 0-39.271422-17.58347-39.271422-39.271422s17.58347-39.271422 39.271422-39.271422l215.991286 0L345.097736 94.743828c0-18.97926 12.656251-29.453822 31.634488-29.453822l270.526343 0c18.97926 0 31.643698 10.474562 31.643698 29.453822l0 88.360444 215.991286 0C916.581502 183.104271 934.164972 200.687742 934.164972 222.37467zM413.821957 183.104271l196.356087 0L610.178043 134.01525 413.821957 134.01525 413.821957 183.104271zM430.287977 821.260529c0.274246 0 0.546446 0 0.824785 0 18.974144 0 33.988092-18.252713 33.542954-37.225833l-9.985422-424.467411c-0.446162-18.975167-16.005532-34.476209-35.162848-34.0587-18.974144 0.446162-33.988092 15.930831-33.542954 34.904974l9.985422 425.364851C396.390959 804.474214 411.683247 821.260529 430.287977 821.260529zM592.20981 821.260529c18.600637 0 33.898041-15.779382 34.339086-34.475186l9.985422-423.901523c0.446162-18.974144-14.56881-34.94693-33.542954-35.393091-19.270902-0.278339-34.717709 14.45727-35.162848 33.42732l-9.985422 424.308799c-0.446162 18.975167 14.56881 36.033681 33.542954 36.033681C591.664388 821.260529 591.93761 821.260529 592.20981 821.260529z" p-id="4248" fill="#d81e06"></path></svg>