<?xml version="1.0" standalone="no"?><!DOCTYPE svg PUBLIC "-//W3C//DTD SVG 1.1//EN" "http://www.w3.org/Graphics/SVG/1.1/DTD/svg11.dtd"><svg t="1707281705838" class="icon" viewBox="0 0 1024 1024" version="1.1" xmlns="http://www.w3.org/2000/svg" p-id="4248" xmlns:xlink="http://www.w3.org/1999/xlink" width="200" height="200"><path d="M469.243751 161.043675l82.672825 0 0 413.485899-82.672825 0 0-413.485899Z" fill="#d81e06" p-id="4249"></path><path d="M700.78599 260.311441l-57.843348 57.897584c66.076862 45.426563 115.680557 124.041983 115.680557 214.947299 0 136.460815-111.620082 248.074757-248.075781 248.074757-136.393277 0-248.075781-111.614965-248.075781-248.074757 0-90.905315 49.666117-169.520735 119.92318-210.823379l-62.02048-62.02048c-82.735247 62.02048-140.574502 161.225824-140.574502 272.844882 0 182.001989 148.869414 330.810004 330.747582 330.810004 181.94059 0 330.808981-148.806992 330.808981-330.810004C841.356399 421.537264 783.453699 322.331921 700.78599 260.311441" fill="#d81e06" p-id="4250"></path></svg>